<?xml version="1.0" standalone="no"?>
<!DOCTYPE svg PUBLIC "-//W3C//DTD SVG 20010904//EN"
 "http://www.w3.org/TR/2001/REC-SVG-20010904/DTD/svg10.dtd">
<svg version="1.0" xmlns="http://www.w3.org/2000/svg"
 width="92.000000pt" height="92.000000pt" viewBox="0 0 92.000000 92.000000"
 preserveAspectRatio="xMidYMid meet">
<metadata>
Created by potrace 1.11, written by Peter Selinger 2001-2013
</metadata>
<g transform="translate(0.000000,92.000000) scale(0.100000,-0.100000)"
fill="#000000" stroke="none">
<path d="M392 895 c-38 -17 -360 -337 -373 -372 -13 -35 -11 -114 4 -141 7
-13 89 -99 182 -192 198 -200 225 -214 321 -171 54 25 61 37 34 66 -21 23 -25
23 -51 10 -37 -20 -69 -19 -99 2 -49 32 -318 314 -322 336 -8 48 7 73 99 168
53 55 99 99 102 99 3 0 33 -25 65 -55 33 -30 63 -55 67 -55 9 0 19 26 19 51 0
11 -21 43 -47 71 l-48 50 35 30 c62 52 103 50 161 -6 l36 -36 28 26 28 25 -39
41 c-64 66 -131 84 -202 53z"/>
<path d="M575 674 c-49 -53 -92 -103 -93 -111 -5 -19 6 -63 16 -63 4 0 41 34
82 75 41 41 80 74 86 75 15 0 131 -115 154 -152 29 -48 15 -83 -68 -170 l-76
-79 -167 167 -167 167 -71 -69 c-75 -74 -96 -119 -65 -144 13 -11 24 -5 75 46
l59 59 140 -140 140 -139 -25 -26 -25 -26 25 -24 26 -24 129 129 c136 136 160
170 160 229 0 61 -23 96 -136 208 l-109 108 -90 -96z"/>
<path d="M641 553 c-16 -11 -21 -25 -21 -59 l0 -44 50 0 50 0 0 44 c0 62 -36
89 -79 59z"/>
<path d="M306 374 c-10 -9 -16 -33 -16 -60 l0 -44 50 0 50 0 0 44 c0 48 -19
76 -50 76 -10 0 -26 -7 -34 -16z m44 -48 c0 -3 -4 -8 -10 -11 -5 -3 -10 -1
-10 4 0 6 5 11 10 11 6 0 10 -2 10 -4z"/>
</g>
</svg>
